<?xml version="1.0" standalone="no"?>
<!DOCTYPE svg PUBLIC "-//W3C//DTD SVG 20010904//EN"
 "http://www.w3.org/TR/2001/REC-SVG-20010904/DTD/svg10.dtd">
<svg version="1.0" xmlns="http://www.w3.org/2000/svg"
 width="800.000000pt" height="800.000000pt" viewBox="0 0 800.000000 800.000000"
 preserveAspectRatio="xMidYMid meet">

<g transform="translate(0.000000,800.000000) scale(0.100000,-0.100000)"
fill="#000000" stroke="none">
<path d="M0 6455 l0 -1545 41 0 c31 0 51 -8 82 -32 23 -18 41 -32 42 -30 0 2
8 0 19 -4 10 -4 27 -2 37 5 15 9 19 8 19 -2 0 -20 33 -47 58 -47 12 0 22 -4
22 -9 0 -13 57 -34 74 -28 23 9 86 -12 86 -28 0 -9 10 -15 24 -15 14 0 28 -4
31 -10 3 -5 30 -10 59 -10 30 0 69 -6 87 -14 19 -8 71 -17 117 -21 45 -4 82
-10 82 -14 0 -13 61 -43 75 -37 8 3 30 -1 50 -10 19 -8 35 -10 35 -5 0 6 11 6
30 0 16 -6 28 -15 27 -21 -1 -6 4 -13 12 -16 8 -3 11 0 7 7 -8 12 7 14 53 5
21 -4 31 -12 31 -25 0 -16 12 -18 103 -22 172 -7 372 -27 375 -37 2 -6 21 -10
43 -10 21 0 39 -4 39 -10 0 -5 18 -10 40 -10 23 0 40 -5 40 -11 0 -8 28 -10
100 -5 55 3 145 9 200 12 55 4 100 11 100 15 0 5 36 9 80 9 64 0 80 3 80 15 0
21 16 19 25 -2 7 -17 8 -16 15 2 7 17 9 17 9 3 2 -34 20 -18 29 25 l10 42 3
-60 2 -60 7 60 c4 33 7 50 8 37 1 -13 6 -21 11 -17 6 3 12 -17 14 -47 2 -29 4
751 5 1735 l2 1787 -1270 0 -1270 0 0 -1545z"/>
<path d="M2581 6453 c1 -1294 10 -2280 17 -2025 1 39 6 61 12 57 6 -3 10 4 11
17 1 23 1 23 9 -2 5 -17 8 -19 9 -7 1 21 21 23 21 2 0 -8 7 -15 15 -15 8 0 15
7 15 15 0 21 28 19 32 -2 3 -12 9 -2 18 25 14 43 42 58 54 27 3 -10 19 -15 46
-15 36 0 40 2 40 25 0 25 1 25 80 25 67 0 80 -3 80 -16 0 -14 10 -15 80 -9 49
4 80 3 80 -2 0 -11 197 -27 290 -25 135 3 270 15 270 23 0 16 90 11 96 -6 8
-20 34 -19 50 3 13 16 13 16 14 0 0 -14 9 -18 40 -18 22 0 40 -4 40 -10 0 -13
420 -13 454 0 14 5 26 16 26 25 0 8 4 15 9 15 10 0 71 58 71 66 0 11 26 29 45
32 25 5 22 5 73 3 34 -1 42 -5 42 -20 0 -26 66 -51 133 -51 33 0 61 -6 76 -16
22 -16 24 -16 33 0 7 13 24 16 86 14 47 -1 60 -3 35 -5 -24 -2 -43 -9 -43 -15
0 -6 18 -9 44 -7 24 2 42 1 39 -3 -8 -14 24 -8 36 6 7 9 42 16 94 20 121 9
131 10 139 21 4 6 9 -8 10 -30 8 -160 14 530 16 1863 l3 1562 -1421 0 -1420 0
1 -1547z m1355 683 l34 -34 0 -232 0 -232 -34 -34 c-29 -29 -41 -34 -80 -34
-57 0 -97 19 -116 56 -22 40 -22 449 0 488 20 38 56 55 114 56 42 0 52 -4 82
-34z m-405 -81 c17 -109 21 -107 40 23 l12 82 58 0 c42 0 57 -3 54 -12 -2 -7
-25 -87 -50 -178 -41 -150 -45 -174 -45 -277 l0 -113 -50 0 -50 0 0 108 c0 97
-4 125 -45 273 -25 90 -48 172 -51 182 -5 16 0 18 53 15 l58 -3 16 -100z m599
-145 c4 -209 7 -245 20 -245 13 0 15 35 18 248 l2 247 50 0 50 0 0 -261 0
-261 -34 -34 c-29 -29 -41 -34 -80 -34 -55 0 -90 15 -113 49 -16 23 -18 56
-21 274 -1 137 0 253 4 258 3 6 27 9 52 7 l47 -3 5 -245z m394 239 c39 -18 56
-66 56 -157 0 -89 -11 -129 -41 -152 -19 -15 -19 -16 6 -90 14 -41 32 -96 40
-122 l14 -48 -53 0 -53 0 -23 83 c-31 110 -41 125 -39 57 1 -30 1 -74 1 -97
l-2 -43 -50 0 -50 0 0 290 0 290 85 0 c46 0 95 -5 109 -11z m-881 -920 c43
-33 49 -75 45 -299 -3 -225 -6 -237 -64 -265 -41 -19 -87 -19 -124 0 -58 30
-60 39 -60 283 0 232 3 251 44 284 31 26 125 24 159 -3z m230 -111 l45 -133 1
133 1 133 48 -3 47 -3 3 -292 2 -293 -42 0 -43 0 -40 131 -40 130 -3 -131 -3
-130 -49 0 -50 0 0 288 c0 159 3 292 7 295 3 4 21 7 39 7 l32 0 45 -132z m317
-113 l0 -245 60 0 60 0 0 -50 0 -50 -110 0 -110 0 0 288 c0 159 3 292 7 295 3
4 26 7 50 7 l43 0 0 -245z m232 145 c9 -52 17 -97 18 -100 1 -3 10 40 19 95
l16 100 49 3 c27 2 52 0 57 -5 4 -4 -15 -87 -41 -183 -46 -161 -49 -184 -50
-287 l0 -113 -50 0 -50 0 0 113 c0 104 -4 126 -49 287 -26 96 -46 179 -44 183
3 4 28 7 56 5 l52 -3 17 -95z m-927 -1063 l0 -237 58 0 57 0 0 -55 0 -55 -110
0 -110 0 0 296 0 295 53 -3 52 -3 0 -238z m273 -54 l2 -293 -55 0 -55 0 0 296
0 295 53 -3 52 -3 3 -292z m197 162 c16 -74 32 -135 35 -135 3 0 19 61 35 135
l29 135 48 0 c41 0 48 -3 53 -22 3 -13 4 -144 3 -293 l-3 -270 -55 0 -55 0 -5
105 -5 105 -18 -77 c-10 -43 -22 -78 -27 -78 -5 0 -17 35 -27 78 l-18 77 -5
-105 -5 -105 -55 0 -55 0 -3 280 c-1 154 0 285 3 292 3 8 23 13 52 13 l49 0
29 -135z m375 -161 l0 -295 -52 3 -53 3 -3 270 c-1 149 0 280 3 293 5 19 12
22 55 22 l50 0 0 -296z m292 285 c2 -5 2 -28 0 -50 -4 -37 -6 -39 -38 -39
l-34 0 0 -245 0 -245 -50 0 -50 0 0 245 0 245 -35 0 -35 0 0 50 0 50 119 0
c75 0 121 -4 123 -11z m-197 -669 c3 -5 1 -10 -4 -10 -6 0 -11 5 -11 10 0 6 2
10 4 10 3 0 8 -4 11 -10z"/>
<path d="M3835 7068 c-3 -7 -4 -101 -3 -208 3 -165 5 -195 18 -195 13 0 15 29
15 204 0 155 -3 205 -12 208 -7 3 -15 -1 -18 -9z"/>
<path d="M4432 6990 c-1 -78 0 -81 21 -78 20 3 22 8 22 78 0 69 -2 75 -21 78
-20 3 -21 -1 -22 -78z"/>
<path d="M3547 6153 c-4 -3 -7 -96 -7 -205 0 -191 1 -198 20 -198 19 0 20 7
20 205 0 164 -3 205 -13 205 -8 0 -17 -3 -20 -7z"/>
<path d="M5461 6283 c1 -945 4 -1705 6 -1689 4 22 7 26 14 15 7 -12 9 -12 9 1
0 13 1 13 10 0 8 -12 10 -10 10 9 l0 25 28 -27 c31 -29 57 -28 104 5 25 17 30
18 60 4 62 -27 76 -28 95 -7 22 27 43 27 43 1 0 -12 7 -20 18 -20 28 0 62 12
62 21 0 5 -7 6 -15 3 -8 -4 -15 -2 -15 4 0 5 9 12 20 15 11 3 18 1 14 -4 -11
-18 27 -8 43 11 21 24 33 26 33 5 0 -19 7 -19 26 0 9 8 23 15 32 15 28 0 135
47 148 65 7 9 18 17 26 19 16 2 81 46 86 58 2 4 12 8 22 8 10 0 21 9 25 19 9
31 35 35 35 6 0 -14 -5 -25 -11 -25 -11 0 -39 -25 -39 -35 0 -3 10 -9 22 -14
26 -9 74 4 102 28 10 9 20 15 22 14 2 -2 17 0 34 3 20 4 30 13 30 24 0 10 8
21 18 25 16 7 15 8 -3 15 -16 6 -12 8 19 14 39 7 100 -9 91 -24 -3 -4 -21 -11
-40 -14 -20 -4 -38 -13 -41 -21 -3 -8 -14 -17 -25 -20 -10 -4 -19 -13 -19 -21
0 -16 16 -19 25 -4 3 6 22 10 41 10 19 0 42 4 52 9 42 21 94 41 107 41 8 0 15
7 15 15 0 10 10 15 29 15 16 0 31 6 35 15 3 8 12 15 19 15 19 0 51 36 43 49
-3 5 2 17 11 27 16 15 18 16 21 2 4 -19 38 -13 65 10 11 10 17 11 17 4 0 -18
112 -15 136 3 12 9 14 14 6 15 -7 0 -11 4 -8 9 3 4 28 6 56 3 49 -4 50 -4 51
24 1 16 1 37 0 46 -1 11 7 18 26 20 16 2 27 8 26 16 -2 6 4 12 12 12 8 0 15 4
15 10 0 9 47 33 85 43 11 3 40 13 64 22 25 9 55 14 67 11 13 -4 24 -1 26 6 6
17 28 0 28 -23 0 -10 -7 -19 -15 -19 -8 0 -15 -4 -15 -9 0 -5 -10 -11 -22 -13
-12 -2 -23 -9 -26 -17 -7 -20 47 -5 74 20 11 10 27 19 36 19 17 0 33 -26 29
-47 -1 -8 10 -13 29 -13 24 0 30 4 28 18 -2 11 3 16 15 14 10 -2 17 3 17 13 0
10 10 15 34 15 19 0 47 7 63 15 15 8 49 23 76 34 l47 20 0 85 0 86 -30 0 c-16
0 -30 -4 -30 -8 0 -11 -99 -59 -140 -67 -19 -4 -44 -14 -55 -21 -11 -8 -30
-14 -42 -14 -18 0 -23 -6 -23 -25 0 -29 2 -29 -44 -10 -44 19 -46 33 -6 46 16
6 28 15 25 19 -3 4 2 10 9 13 8 3 17 1 19 -6 3 -9 9 -9 23 0 31 20 106 53 120
53 8 0 14 5 14 10 0 6 6 10 14 10 7 0 27 7 42 15 16 8 46 15 67 15 l37 0 0
1265 0 1265 -1270 0 -1270 0 1 -1717z m2262 -1010 c-7 -2 -19 -2 -25 0 -7 3
-2 5 12 5 14 0 19 -2 13 -5z m14 -69 c-3 -3 -12 -4 -19 -1 -8 3 -5 6 6 6 11 1
17 -2 13 -5z m-1229 -282 c7 -5 10 -16 6 -25 -4 -11 -1 -17 7 -17 23 0 -4 -17
-37 -24 -22 -5 -36 -2 -47 8 -9 9 -27 16 -41 16 -14 0 -26 4 -26 9 0 17 26 30
70 34 25 2 47 4 50 5 3 1 11 -2 18 -6z"/>
<path d="M7200 4990 c0 -5 18 -10 40 -10 22 0 40 5 40 10 0 6 -18 10 -40 10
-22 0 -40 -4 -40 -10z"/>
<path d="M6975 4849 c-4 -6 -4 -13 -1 -16 8 -8 36 5 36 17 0 13 -27 13 -35 -1z"/>
<path d="M6480 4788 c0 -4 16 -8 35 -8 19 0 35 4 35 8 0 4 -16 8 -35 8 -19 0
-35 -4 -35 -8z"/>
<path d="M6300 4761 c0 -6 5 -13 10 -16 6 -3 10 1 10 9 0 9 -4 16 -10 16 -5 0
-10 -4 -10 -9z"/>
<path d="M6400 4709 c0 -5 5 -7 10 -4 6 3 10 8 10 11 0 2 -4 4 -10 4 -5 0 -10
-5 -10 -11z"/>
<path d="M5670 4612 c0 -12 19 -26 26 -19 2 2 -2 10 -11 17 -9 8 -15 8 -15 2z"/>
<path d="M4030 4470 c0 -5 5 -10 11 -10 5 0 7 5 4 10 -3 6 -8 10 -11 10 -2 0
-4 -4 -4 -10z"/>
<path d="M4190 4470 c-8 -5 -12 -11 -9 -14 3 -3 14 1 25 9 21 16 8 20 -16 5z"/>
<path d="M3548 4463 c7 -3 16 -2 19 1 4 3 -2 6 -13 5 -11 0 -14 -3 -6 -6z"/>
<path d="M4142 4430 c0 -14 2 -19 5 -12 2 6 2 18 0 25 -3 6 -5 1 -5 -13z"/>
<path d="M4278 4433 c7 -3 16 -2 19 1 4 3 -2 6 -13 5 -11 0 -14 -3 -6 -6z"/>
<path d="M4228 4423 c6 -2 18 -2 25 0 6 3 1 5 -13 5 -14 0 -19 -2 -12 -5z"/>
<path d="M4347 4419 c7 -7 15 -10 18 -7 3 3 -2 9 -12 12 -14 6 -15 5 -6 -5z"/>
<path d="M3280 4415 c0 -5 5 -17 10 -25 5 -8 10 -10 10 -5 0 6 -5 17 -10 25
-5 8 -10 11 -10 5z"/>
<path d="M3405 4410 c3 -5 8 -10 11 -10 2 0 4 5 4 10 0 6 -5 10 -11 10 -5 0
-7 -4 -4 -10z"/>
<path d="M3470 4385 c-7 -9 -11 -17 -9 -20 3 -2 10 5 17 15 14 24 10 26 -8 5z"/>
<path d="M4011 4384 c0 -11 3 -14 6 -6 3 7 2 16 -1 19 -3 4 -6 -2 -5 -13z"/>
<path d="M5615 2746 c-42 -8 -68 -19 -86 -38 -15 -15 -24 -29 -21 -32 3 -3
-88 -6 -202 -6 -136 0 -205 3 -201 10 3 6 -3 10 -15 10 -12 0 -18 -4 -15 -10
4 -7 -791 -11 -2377 -12 -2571 -3 -2494 -2 -2615 -6 l-83 -2 0 -61 0 -61 58 6
c40 5 53 4 42 -3 -8 -6 -34 -11 -57 -11 -26 0 -43 -5 -43 -11 0 -8 18 -10 62
-5 61 6 76 0 22 -10 -15 -3 -35 -9 -43 -14 -13 -8 -12 -9 6 -10 12 0 25 5 28
10 4 7 11 8 18 1 13 -10 128 -8 145 3 6 3 13 2 17 -4 3 -5 3 -10 -2 -11 -4 0
-17 -3 -28 -5 -11 -2 -64 -6 -119 -9 -95 -4 -148 -15 -73 -15 21 0 37 -4 37
-8 0 -11 39 -12 45 -1 4 5 11 6 17 3 18 -11 140 -16 134 -5 -4 6 21 9 68 8 41
-1 72 1 70 5 -3 4 4 6 13 6 10 -1 31 2 46 6 17 4 26 3 23 -2 -3 -5 -19 -12
-36 -16 -17 -3 -29 -9 -27 -13 6 -10 -79 -10 -89 -1 -11 12 -44 10 -44 -2 0
-5 -9 -10 -20 -10 -11 0 -23 -6 -26 -14 -4 -10 -25 -12 -82 -11 -42 1 -83 -2
-89 -7 -9 -7 -15 -6 -18 4 -9 22 -55 11 -55 -13 0 -11 5 -19 11 -19 8 0 8 -4
0 -14 -8 -9 -11 -100 -11 -304 l1 -291 22 -4 22 -4 -22 -2 -23 -1 0 -226 0
-227 43 6 c23 3 62 1 87 -3 l45 -9 -45 2 c-25 0 -64 -3 -87 -7 -43 -8 -43 -8
-43 -51 l0 -43 88 6 c48 2 98 9 112 14 24 10 24 11 5 18 -20 9 -20 9 0 9 12 1
27 7 34 13 11 10 13 10 7 1 -4 -7 -3 -13 3 -13 5 0 17 -3 27 -7 11 -4 15 -2
11 4 -11 17 160 24 191 7 l27 -14 -33 0 c-23 0 -31 4 -26 12 5 8 2 9 -10 5
-10 -4 -33 -7 -52 -7 -21 0 -33 -4 -29 -10 3 -6 1 -10 -6 -10 -7 0 -4 -7 7
-15 18 -13 17 -14 -16 -15 -23 0 -30 3 -22 9 11 7 10 10 -3 15 -9 3 -21 4 -26
1 -5 -3 -18 -1 -29 5 -11 6 -20 7 -20 2 0 -15 -49 -30 -120 -37 -36 -4 -78 -9
-93 -12 l-28 -6 1 -198 1 -199 32 -1 32 -1 -32 -14 c-28 -12 -32 -18 -30 -46
2 -28 7 -33 29 -33 14 0 30 -4 35 -9 4 -5 -8 -7 -29 -4 -42 4 -46 -11 -8 -29
l25 -12 -27 -1 c-27 0 -28 -2 -28 -50 0 -27 3 -50 6 -50 15 0 44 22 39 31 -6
9 -5 10 30 14 11 1 30 5 42 9 12 4 24 2 28 -5 5 -7 10 -8 14 -1 7 11 61 4 61
-8 0 -7 -57 -24 -72 -21 -13 2 -9 -17 5 -23 6 -2 -1 -4 -18 -4 -57 3 -86 -2
-80 -12 4 -6 -7 -15 -24 -21 l-31 -11 0 -229 0 -229 4000 0 4000 0 0 651 c0
609 -1 653 -17 665 -17 13 -17 13 0 14 16 0 17 16 17 194 0 194 0 195 -22 199
l-23 4 22 2 22 1 1 465 0 465 -722 1 c-398 1 -750 3 -783 5 -33 1 -87 4 -120
4 -33 1 -52 4 -42 7 28 8 20 23 -13 23 -20 0 -30 -5 -30 -15 0 -13 -27 -15
-187 -14 -104 1 -180 3 -170 6 16 4 15 7 -8 19 -32 16 -59 18 -50 4 3 -6 -4
-10 -16 -10 -21 0 -22 1 -4 20 16 18 16 20 2 20 -10 0 -17 -5 -17 -11 0 -8 -4
-8 -14 1 -17 13 -113 40 -136 38 -8 0 -42 -6 -75 -12z m188 -73 c-13 -2 -33
-2 -45 0 -13 2 -3 4 22 4 25 0 35 -2 23 -4z m90 0 c-7 -2 -21 -2 -30 0 -10 3
-4 5 12 5 17 0 24 -2 18 -5z m-5599 -127 c37 4 38 3 16 -7 -14 -6 -42 -8 -63
-5 -21 4 -47 2 -57 -4 -14 -8 -20 -8 -20 0 0 6 -6 8 -12 4 -10 -6 -10 -5 0 8
9 12 22 14 53 8 23 -4 60 -6 83 -4z m4401 4 c3 -5 -1 -10 -9 -10 -9 0 -16 5
-16 10 0 6 4 10 9 10 6 0 13 -4 16 -10z m360 -8 c-3 -3 -11 0 -18 7 -9 10 -8
11 6 5 10 -3 15 -9 12 -12z m-265 4 c0 -9 -30 -14 -35 -6 -4 6 3 10 14 10 12
0 21 -2 21 -4z m53 -3 c-7 -2 -19 -2 -25 0 -7 3 -2 5 12 5 14 0 19 -2 13 -5z
m-4408 -13 c-3 -5 -32 -9 -63 -9 -55 2 -56 2 -17 9 62 11 87 11 80 0z m3488 3
c-7 -2 -19 -2 -25 0 -7 3 -2 5 12 5 14 0 19 -2 13 -5z m604 1 c-3 -3 -12 -4
-19 -1 -8 3 -5 6 6 6 11 1 17 -2 13 -5z m100 -10 c-3 -3 -12 -4 -19 -1 -8 3
-5 6 6 6 11 1 17 -2 13 -5z m-4307 -34 c0 -5 10 -10 23 -11 12 0 16 -3 9 -6
-20 -8 -83 7 -77 18 8 12 45 12 45 -1z m177 4 c-3 -3 -12 -4 -19 -1 -8 3 -5 6
6 6 11 1 17 -2 13 -5z m73 -4 c12 -8 9 -10 -12 -10 -16 0 -28 5 -28 10 0 13
20 13 40 0z m2283 3 c-7 -2 -19 -2 -25 0 -7 3 -2 5 12 5 14 0 19 -2 13 -5z
m447 3 c0 -11 -19 -15 -25 -6 -3 5 1 10 9 10 9 0 16 -2 16 -4z m-833 -12 c-3
-3 -12 -4 -19 -1 -8 3 -5 6 6 6 11 1 17 -2 13 -5z m40 0 c-3 -3 -12 -4 -19 -1
-8 3 -5 6 6 6 11 1 17 -2 13 -5z m186 -1 c-7 -2 -19 -2 -25 0 -7 3 -2 5 12 5
14 0 19 -2 13 -5z m172 -21 c-3 -3 -11 0 -18 7 -9 10 -8 11 6 5 10 -3 15 -9
12 -12z m-2218 -9 c3 -7 -3 -9 -16 -6 -12 3 -21 10 -21 15 0 13 32 6 37 -9z
m216 6 c-13 -12 -86 -15 -90 -3 -2 6 16 10 47 10 28 0 47 -3 43 -7z m1387 1
c0 -5 -5 -10 -11 -10 -5 0 -7 5 -4 10 3 6 8 10 11 10 2 0 4 -4 4 -10z m1057 4
c-3 -3 -12 -4 -19 -1 -8 3 -5 6 6 6 11 1 17 -2 13 -5z m240 0 c-3 -3 -12 -4
-19 -1 -8 3 -5 6 6 6 11 1 17 -2 13 -5z m-3005 -11 c-14 -3 -22 -10 -19 -17 4
-9 -3 -11 -21 -8 -24 5 -24 6 -7 18 10 8 30 13 44 13 25 -2 25 -2 3 -6z m385
1 c-3 -3 -12 -4 -19 -1 -8 3 -5 6 6 6 11 1 17 -2 13 -5z m73 -4 c-20 -13 -33
-13 -25 0 3 6 14 10 23 10 15 0 15 -2 2 -10z m785 0 c-3 -5 -13 -10 -21 -10
-8 0 -14 5 -14 10 0 6 9 10 21 10 11 0 17 -4 14 -10z m222 4 c-3 -3 -12 -4
-19 -1 -8 3 -5 6 6 6 11 1 17 -2 13 -5z m135 -13 c4 -3 -10 -7 -30 -8 -25 -2
-32 0 -23 6 12 8 12 10 0 13 -8 3 0 3 16 0 17 -2 33 -7 37 -11z m40 7 c-9 -9
-15 -9 -24 0 -9 9 -7 12 12 12 19 0 21 -3 12 -12z m142 -3 c-4 -8 -14 -15 -23
-15 -14 0 -14 -2 -1 -10 8 -5 10 -10 4 -10 -5 0 -19 7 -30 15 -18 14 -18 14 8
15 15 0 30 5 33 10 9 15 15 12 9 -5z m276 5 c0 -5 -4 -10 -10 -10 -5 0 -10 5
-10 10 0 6 5 10 10 10 6 0 10 -4 10 -10z m-2005 -10 c3 -5 1 -10 -4 -10 -6 0
-11 5 -11 10 0 6 2 10 4 10 3 0 8 -4 11 -10z m152 4 c-3 -3 -12 -4 -19 -1 -8
3 -5 6 6 6 11 1 17 -2 13 -5z m208 -4 c-3 -5 -14 -10 -23 -9 -14 0 -13 2 3 9
27 11 27 11 20 0z m771 -5 c15 -12 16 -14 2 -9 -11 4 -26 -4 -43 -22 -22 -23
-28 -25 -48 -16 -21 11 -21 11 4 6 18 -4 28 -1 32 10 5 12 0 16 -21 17 -21 1
-22 2 -7 6 11 3 24 9 30 14 13 13 28 11 51 -6z m331 -5 c3 -10 2 -11 -4 -4 -4
6 -15 14 -23 17 -11 5 -9 6 4 4 11 -1 21 -9 23 -17z m-1370 4 c-3 -3 -12 -4
-19 -1 -8 3 -5 6 6 6 11 1 17 -2 13 -5z m203 -4 c-8 -5 -19 -10 -25 -10 -5 0
-3 5 5 10 8 5 20 10 25 10 6 0 3 -5 -5 -10z m317 4 c-3 -3 -12 -4 -19 -1 -8 3
-5 6 6 6 11 1 17 -2 13 -5z m658 -14 c-34 -7 -40 -5 -31 8 3 5 18 7 33 4 l28
-6 -30 -6z m123 12 c8 -5 -5 -9 -32 -9 -25 0 -43 4 -40 9 7 10 55 10 72 0z
m-1183 -12 c18 -8 18 -9 -5 -9 -14 0 -32 4 -40 9 -12 8 -12 10 5 9 11 0 29 -4
40 -9z m290 0 c3 -5 -1 -10 -9 -10 -9 0 -16 5 -16 10 0 6 4 10 9 10 6 0 13 -4
16 -10z m52 4 c-3 -3 -12 -4 -19 -1 -8 3 -5 6 6 6 11 1 17 -2 13 -5z m53 -10
c0 -2 -9 -4 -20 -4 -11 0 -20 4 -20 9 0 5 9 7 20 4 11 -3 20 -7 20 -9z m213 4
c4 -9 8 -9 14 -3 4 6 37 11 73 11 36 1 59 -1 53 -3 -9 -3 -10 -10 -3 -24 8
-15 7 -19 -5 -19 -8 0 -14 5 -12 12 1 8 -18 13 -60 14 -82 2 -83 2 -83 14 0
14 17 12 23 -2z m387 2 c0 -5 -4 -10 -9 -10 -6 0 -13 5 -16 10 -3 6 1 10 9 10
9 0 16 -4 16 -10z m638 -4 c3 -3 -2 -6 -10 -6 -9 0 -21 -7 -28 -15 -8 -10 -31
-15 -68 -15 -69 0 -64 10 6 11 29 1 52 6 52 11 0 6 -16 8 -35 6 -23 -3 -31 0
-25 7 8 10 97 11 108 1z m-1691 -4 c6 -4 -22 -7 -63 -7 -41 0 -74 3 -74 8 0 9
121 9 137 -1z m1726 -4 c-4 -7 -8 -16 -8 -20 0 -3 -4 -10 -9 -15 -5 -5 -6 -3
-2 5 4 7 2 12 -5 12 -8 0 -8 4 1 15 15 18 34 20 23 3z m267 3 c0 -5 -9 -7 -20
-4 -11 3 -20 7 -20 9 0 2 9 4 20 4 11 0 20 -4 20 -9z m-1642 -29 c42 -5 41
-15 0 -10 -21 2 -40 -1 -42 -7 -3 -7 -7 -6 -13 1 -4 6 -15 14 -23 17 -12 4
-11 6 3 6 9 1 17 6 17 12 0 8 5 7 16 -2 9 -7 28 -15 42 -17z m657 8 c-10 -11
-22 -17 -28 -13 -6 4 -3 12 8 20 28 20 41 16 20 -7z m-1255 0 c0 -5 -9 -10
-19 -10 -11 0 -28 -3 -38 -6 -12 -5 -15 -4 -8 4 9 9 30 17 58 21 4 0 7 -3 7
-9z m85 0 c-28 -12 -37 -12 -30 0 3 6 16 10 28 9 21 0 21 -1 2 -9z m328 -6
c-5 -13 1 -14 33 -10 29 5 34 4 19 -3 -32 -15 -54 -12 -65 9 -8 16 -8 20 4 20
10 0 13 -6 9 -16z m320 9 c-7 -2 -19 -2 -25 0 -7 3 -2 5 12 5 14 0 19 -2 13
-5z m77 -3 c0 -5 -4 -10 -10 -10 -5 0 -10 5 -10 10 0 6 5 10 10 10 6 0 10 -4
10 -10z m1763 3 c-7 -2 -19 -2 -25 0 -7 3 -2 5 12 5 14 0 19 -2 13 -5z m-2326
-9 c-3 -3 -12 -4 -19 -1 -8 3 -5 6 6 6 11 1 17 -2 13 -5z m1050 0 c-3 -3 -12
-4 -19 -1 -8 3 -5 6 6 6 11 1 17 -2 13 -5z m232 2 c-2 -2 -29 -6 -59 -9 -34
-3 -47 -2 -35 3 19 8 103 14 94 6z m-1240 -15 c12 -8 9 -11 -12 -17 -16 -3
-31 -4 -34 0 -4 3 1 6 11 6 9 0 14 5 11 10 -8 12 5 13 24 1z m394 -3 c4 -10 8
-10 15 1 6 8 15 10 23 6 9 -6 7 -10 -9 -16 -24 -9 -52 -2 -52 12 0 13 18 11
23 -3z m295 5 c-10 -2 -28 -2 -40 0 -13 2 -5 4 17 4 22 1 32 -1 23 -4z m406
-8 c-7 -16 -44 -21 -44 -6 0 8 16 16 42 20 4 0 5 -6 2 -14z m343 9 c-3 -3 -12
-4 -19 -1 -8 3 -5 6 6 6 11 1 17 -2 13 -5z m-2061 -13 c-3 -5 -14 -11 -25 -14
-14 -3 -18 -1 -14 9 3 8 14 14 25 14 10 0 17 -4 14 -9z m61 -2 c-14 -8 -22 -8
-30 0 -8 8 -3 11 19 11 25 -1 27 -2 11 -11z m623 1 c0 -5 -6 -10 -14 -10 -8 0
-18 5 -21 10 -3 6 3 10 14 10 12 0 21 -4 21 -10z m535 -10 c-16 -3 -39 -4 -49
-1 -19 4 -19 5 -2 11 10 3 33 4 50 1 l31 -5 -30 -6z m145 10 c0 -5 -5 -10 -11
-10 -5 0 -7 5 -4 10 3 6 8 10 11 10 2 0 4 -4 4 -10z m500 6 c0 -2 -7 -6 -15
-10 -8 -3 -15 -1 -15 4 0 6 7 10 15 10 8 0 15 -2 15 -4z m130 -6 c10 -7 -1 -8
-35 -4 -27 4 -52 8 -54 10 -10 9 75 3 89 -6z m100 1 c0 -5 -7 -12 -16 -15 -14
-5 -15 -4 -4 9 14 17 20 19 20 6z m119 -7 c2 -2 -14 -4 -37 -4 -23 0 -42 4
-42 9 0 9 69 4 79 -5z m-1958 -12 c-7 -2 -18 1 -23 6 -8 8 -4 9 13 5 13 -4 18
-8 10 -11z m569 8 c0 -5 -12 -10 -27 -9 -25 0 -26 1 -8 9 27 12 35 12 35 0z
m95 0 c4 -6 -7 -10 -27 -9 -31 1 -32 1 -8 9 14 4 26 8 27 9 1 1 5 -3 8 -9z
m199 -5 c-4 -10 -18 -14 -43 -13 l-36 1 33 4 c17 2 32 8 32 14 0 5 4 9 10 9 5
0 7 -7 4 -15z m-774 1 c0 -3 -4 -8 -10 -11 -5 -3 -10 -1 -10 4 0 6 5 11 10 11
6 0 10 -2 10 -4z m-243 -12 c-3 -3 -12 -4 -19 -1 -8 3 -5 6 6 6 11 1 17 -2 13
-5z m210 0 c-3 -3 -12 -4 -19 -1 -8 3 -5 6 6 6 11 1 17 -2 13 -5z m1280 -30
c-3 -3 -12 -4 -19 -1 -8 3 -5 6 6 6 11 1 17 -2 13 -5z m-290 -40 c-3 -3 -12
-4 -19 -1 -8 3 -5 6 6 6 11 1 17 -2 13 -5z m166 -71 c-7 -2 -19 -2 -25 0 -7 3
-2 5 12 5 14 0 19 -2 13 -5z m50 0 c-7 -2 -19 -2 -25 0 -7 3 -2 5 12 5 14 0
19 -2 13 -5z m3480 -100 c-7 -2 -19 -2 -25 0 -7 3 -2 5 12 5 14 0 19 -2 13 -5z
m-1806 -9 c-3 -3 -12 -4 -19 -1 -8 3 -5 6 6 6 11 1 17 -2 13 -5z m1210 -10
c-3 -3 -12 -4 -19 -1 -8 3 -5 6 6 6 11 1 17 -2 13 -5z m1281 -1 c-10 -2 -26
-2 -35 0 -10 3 -2 5 17 5 19 0 27 -2 18 -5z m122 3 c0 -3 -4 -8 -10 -11 -5 -3
-10 -1 -10 4 0 6 5 11 10 11 6 0 10 -2 10 -4z m-393 -12 c-3 -3 -12 -4 -19 -1
-8 3 -5 6 6 6 11 1 17 -2 13 -5z m223 -14 c0 -5 -4 -10 -9 -10 -6 0 -13 5 -16
10 -3 6 1 10 9 10 9 0 16 -4 16 -10z m63 3 c-7 -2 -21 -2 -30 0 -10 3 -4 5 12
5 17 0 24 -2 18 -5z m-3073 -23 c12 -8 11 -10 -7 -10 -12 0 -25 5 -28 10 -8
13 15 13 35 0z m3157 4 c-3 -3 -12 -4 -19 -1 -8 3 -5 6 6 6 11 1 17 -2 13 -5z
m-4290 -80 c-3 -3 -12 -4 -19 -1 -8 3 -5 6 6 6 11 1 17 -2 13 -5z m1220 -20
c-3 -3 -12 -4 -19 -1 -8 3 -5 6 6 6 11 1 17 -2 13 -5z m3977 -9 c-4 -8 -13
-15 -22 -15 -13 0 -12 3 4 15 24 18 25 18 18 0z m393 -3 c8 -5 -1 -8 -21 -8
-19 0 -32 4 -30 8 7 10 35 10 51 0z m203 -6 c0 -3 -4 -8 -10 -11 -5 -3 -10 -1
-10 4 0 6 5 11 10 11 6 0 10 -2 10 -4z m243 -3 c-7 -2 -21 -2 -30 0 -10 3 -4
5 12 5 17 0 24 -2 18 -5z m-1204 -19 c2 -2 -36 -4 -85 -3 -58 1 -80 4 -64 9
23 7 139 2 149 -6z m1348 10 c-3 -3 -12 -4 -19 -1 -8 3 -5 6 6 6 11 1 17 -2
13 -5z m-1244 -11 c-7 -2 -19 -2 -25 0 -7 3 -2 5 12 5 14 0 19 -2 13 -5z
m1380 0 c-7 -2 -19 -2 -25 0 -7 3 -2 5 12 5 14 0 19 -2 13 -5z m-958 -13 c-3
-5 -39 -9 -78 -8 l-72 1 65 7 c36 4 71 7 78 8 7 1 10 -2 7 -8z m-5425 -10 c-8
-5 -31 -9 -50 -9 -32 1 -33 2 -10 9 14 4 36 8 50 9 20 1 22 -1 10 -9z m4950
-4 c-57 -12 -84 -10 -74 5 3 5 33 9 67 8 l62 -1 -55 -12z m-885 -5 c-11 -9
-75 -23 -75 -16 0 2 15 9 33 14 43 12 53 13 42 2z m150 -1 c3 -5 -1 -10 -10
-10 -9 0 -13 5 -10 10 3 6 8 10 10 10 2 0 7 -4 10 -10z m519 -6 c2 -6 -7 -9
-25 -6 -39 6 -46 19 -9 18 16 -1 32 -6 34 -12z m116 6 c0 -5 -6 -10 -14 -10
-8 0 -18 5 -21 10 -3 6 3 10 14 10 12 0 21 -4 21 -10z m238 3 c-16 -2 -40 -2
-55 0 -16 2 -3 4 27 4 30 0 43 -2 28 -4z m140 0 c-10 -2 -28 -2 -40 0 -13 2
-5 4 17 4 22 1 32 -1 23 -4z m950 0 c-10 -2 -28 -2 -40 0 -13 2 -5 4 17 4 22
1 32 -1 23 -4z m-2043 -13 c-3 -5 -18 -10 -33 -9 l-27 1 25 8 c35 11 42 11 35
0z m464 -6 c8 -7 -84 -2 -114 7 -19 5 -4 6 40 2 39 -3 72 -7 74 -9z m184 9
c-7 -2 -19 -2 -25 0 -7 3 -2 5 12 5 14 0 19 -2 13 -5z m975 0 c-10 -2 -26 -2
-35 0 -10 3 -2 5 17 5 19 0 27 -2 18 -5z m-5568 -24 c-19 -4 -39 -5 -44 -1
-15 9 25 19 53 13 25 -4 24 -5 -9 -12z m5336 11 c-32 -4 -70 -4 -85 0 -17 6 2
8 59 8 84 -1 84 -1 26 -8z m-5411 -9 c-6 -5 -23 -12 -40 -16 -29 -6 -29 -6
-11 9 21 17 67 23 51 7z m2468 2 c-7 -2 -19 -2 -25 0 -7 3 -2 5 12 5 14 0 19
-2 13 -5z m115 0 c-10 -2 -26 -2 -35 0 -10 3 -2 5 17 5 19 0 27 -2 18 -5z
m1062 -9 c0 -2 -11 -4 -25 -4 -14 0 -25 4 -25 9 0 4 11 6 25 3 14 -2 25 -6 25
-8z m1163 9 c-7 -2 -19 -2 -25 0 -7 3 -2 5 12 5 14 0 19 -2 13 -5z m410 0
c-13 -2 -35 -2 -50 0 -16 2 -5 4 22 4 28 0 40 -2 28 -4z m-6775 -10 c-10 -2
-28 -2 -40 0 -13 2 -5 4 17 4 22 1 32 -1 23 -4z m957 -3 c3 -6 -1 -7 -9 -4
-18 7 -21 14 -7 14 6 0 13 -4 16 -10z m50 0 c-3 -5 -13 -10 -21 -10 -8 0 -14
5 -14 10 0 6 9 10 21 10 11 0 17 -4 14 -10z m5442 4 c-3 -3 -12 -4 -19 -1 -8
3 -5 6 6 6 11 1 17 -2 13 -5z m400 0 c-3 -3 -12 -4 -19 -1 -8 3 -5 6 6 6 11 1
17 -2 13 -5z m490 0 c-3 -3 -12 -4 -19 -1 -8 3 -5 6 6 6 11 1 17 -2 13 -5z
m-6123 -12 c2 -4 -4 -8 -14 -9 -11 -1 -22 2 -25 8 -4 5 3 9 14 9 11 0 22 -4
25 -8z m2656 -7 c-14 -8 -29 -14 -35 -14 -5 0 1 6 15 14 14 8 30 14 35 14 6 0
-1 -6 -15 -14z m3295 7 c-16 -4 -11 -8 20 -17 29 -9 33 -13 17 -14 -19 -1 -82
24 -82 32 0 1 15 3 33 3 18 1 23 -1 12 -4z m100 -13 c5 -6 2 -9 -9 -9 -9 0
-25 7 -34 16 -15 15 -14 16 8 9 14 -4 29 -11 35 -16z m-5928 5 c-10 -10 -66
-14 -71 -5 -3 4 13 8 36 9 23 1 39 -1 35 -4z m90 0 c-3 -3 -12 -4 -19 -1 -8 3
-5 6 6 6 11 1 17 -2 13 -5z m5483 -4 c0 -5 -4 -10 -9 -10 -6 0 -13 5 -16 10
-3 6 1 10 9 10 9 0 16 -4 16 -10z m125 0 c16 -7 17 -9 3 -9 -9 -1 -25 -4 -35
-7 -14 -5 -15 -4 -4 4 11 8 6 12 -25 15 l-39 4 40 1 c22 0 49 -3 60 -8z m70 0
c3 -5 -3 -10 -14 -10 -12 0 -21 5 -21 10 0 6 6 10 14 10 8 0 18 -4 21 -10z
m235 -6 c0 -2 -11 -4 -25 -4 -14 0 -25 4 -25 9 0 4 11 6 25 3 14 -2 25 -6 25
-8z m-1817 -1 c-7 -2 -21 -2 -30 0 -10 3 -4 5 12 5 17 0 24 -2 18 -5z m-400
-10 c-7 -2 -19 -2 -25 0 -7 3 -2 5 12 5 14 0 19 -2 13 -5z m-4946 -9 c-3 -3
-12 -4 -19 -1 -8 3 -5 6 6 6 11 1 17 -2 13 -5z m3716 -1 c-7 -2 -21 -2 -30 0
-10 3 -4 5 12 5 17 0 24 -2 18 -5z m3272 -3 l20 -9 -20 0 c-11 0 -27 4 -35 9
-13 9 -13 10 0 9 8 0 24 -4 35 -9z m122 4 c-3 -3 -12 -4 -19 -1 -8 3 -5 6 6 6
11 1 17 -2 13 -5z m-5160 -10 c-3 -3 -12 -4 -19 -1 -8 3 -5 6 6 6 11 1 17 -2
13 -5z m5362 -5 c32 -11 32 -12 11 -26 -20 -14 -20 -16 -4 -34 21 -23 7 -25
-24 -3 l-22 15 22 21 c23 20 23 20 -29 2 -14 -5 -15 -4 -4 4 7 5 10 15 7 21
-9 14 3 14 43 0z m-160 -25 c14 -4 22 -3 18 2 -3 6 9 8 29 6 18 -2 31 -8 28
-13 -3 -5 4 -9 15 -9 12 0 21 -5 21 -10 0 -15 -129 10 -195 36 -15 6 57 -4 84
-12z m351 -35 c11 -6 6 -8 -16 -9 -52 0 -124 12 -119 21 6 9 114 0 135 -12z
m90 -5 c0 -2 -16 -4 -36 -4 -19 0 -33 4 -30 8 5 8 66 4 66 -4z m47 0 c-3 -3
-12 -4 -19 -1 -8 3 -5 6 6 6 11 1 17 -2 13 -5z m-427 -20 c0 -2 -30 -3 -67 -2
l-68 1 55 6 c52 6 80 4 80 -5z m-853 -20 c-3 -3 -12 -4 -19 -1 -8 3 -5 6 6 6
11 1 17 -2 13 -5z m366 -31 c-7 -2 -19 -2 -25 0 -7 3 -2 5 12 5 14 0 19 -2 13
-5z m-6255 -20 c-10 -2 -26 -2 -35 0 -10 3 -2 5 17 5 19 0 27 -2 18 -5z m549
-49 c-3 -3 -12 -4 -19 -1 -8 3 -5 6 6 6 11 1 17 -2 13 -5z m-392 -104 c-11 -5
-27 -9 -35 -9 -9 0 -8 4 5 9 11 5 27 9 35 9 9 0 8 -4 -5 -9z m6598 -7 c-7 -2
-21 -2 -30 0 -10 3 -4 5 12 5 17 0 24 -2 18 -5z m-6823 -47 c0 -11 -19 -15
-25 -6 -3 5 1 10 9 10 9 0 16 -2 16 -4z m-407 -13 c-7 -2 -21 -2 -30 0 -10 3
-4 5 12 5 17 0 24 -2 18 -5z m-76 -9 c-3 -3 -12 -4 -19 -1 -8 3 -5 6 6 6 11 1
17 -2 13 -5z m-77 -14 c-20 -13 -43 -13 -35 0 3 6 16 10 28 10 18 0 19 -2 7
-10z m820 -10 c0 -5 -4 -10 -10 -10 -5 0 -10 5 -10 10 0 6 5 10 10 10 6 0 10
-4 10 -10z m640 0 c0 -5 -4 -10 -10 -10 -5 0 -10 5 -10 10 0 6 5 10 10 10 6 0
10 -4 10 -10z m-1203 -6 c-3 -3 -12 -4 -19 -1 -8 3 -5 6 6 6 11 1 17 -2 13 -5z
m77 -3 c3 -4 -6 -6 -19 -3 -14 2 -25 6 -25 8 0 8 39 4 44 -5z m43 3 c-3 -3
-12 -4 -19 -1 -8 3 -5 6 6 6 11 1 17 -2 13 -5z m380 0 c-3 -3 -12 -4 -19 -1
-8 3 -5 6 6 6 11 1 17 -2 13 -5z m1910 0 c-3 -3 -12 -4 -19 -1 -8 3 -5 6 6 6
11 1 17 -2 13 -5z m-2452 -14 c3 -5 -3 -10 -14 -10 -10 0 -28 -3 -38 -6 -16
-6 -16 -5 2 9 23 19 41 21 50 7z m798 3 c-7 -2 -19 -2 -25 0 -7 3 -2 5 12 5
14 0 19 -2 13 -5z m1595 0 c-10 -2 -28 -2 -40 0 -13 2 -5 4 17 4 22 1 32 -1
23 -4z m4509 1 c-3 -3 -12 -4 -19 -1 -8 3 -5 6 6 6 11 1 17 -2 13 -5z m-6422
-14 c-3 -5 -12 -10 -18 -10 -7 0 -6 4 3 10 19 12 23 12 15 0z m-42 -7 c-7 -2
-21 -2 -30 0 -10 3 -4 5 12 5 17 0 24 -2 18 -5z m592 -3 c-3 -5 -13 -10 -21
-10 -8 0 -14 5 -14 10 0 6 9 10 21 10 11 0 17 -4 14 -10z m-1155 -14 c-14 -8
-29 -11 -35 -8 -5 3 1 9 15 13 40 11 47 9 20 -5z m505 5 c3 -5 1 -12 -5 -16
-5 -3 -10 1 -10 9 0 18 6 21 15 7z m-368 -7 c-3 -3 -12 -4 -19 -1 -8 3 -5 6 6
6 11 1 17 -2 13 -5z m633 -4 c0 -5 -11 -10 -25 -10 -14 0 -25 5 -25 10 0 6 11
10 25 10 14 0 25 -4 25 -10z m93 3 c-7 -2 -19 -2 -25 0 -7 3 -2 5 12 5 14 0
19 -2 13 -5z m374 1 c-3 -3 -12 -4 -19 -1 -8 3 -5 6 6 6 11 1 17 -2 13 -5z
m5670 0 c-3 -3 -12 -4 -19 -1 -8 3 -5 6 6 6 11 1 17 -2 13 -5z m-6453 -14 c-7
-7 -19 -7 -35 -1 -23 9 -22 10 11 10 23 1 31 -2 24 -9z m239 3 c-13 -2 -35 -2
-50 0 -16 2 -5 4 22 4 28 0 40 -2 28 -4z m-450 -10 c-7 -2 -19 -2 -25 0 -7 3
-2 5 12 5 14 0 19 -2 13 -5z m322 -3 c3 -5 -1 -10 -9 -10 -9 0 -16 5 -16 10 0
6 4 10 9 10 6 0 13 -4 16 -10z m-625 -4 c0 -2 -9 -6 -20 -9 -11 -3 -18 -1 -14
4 5 9 34 13 34 5z m70 -6 c0 -5 -2 -10 -4 -10 -3 0 -8 5 -11 10 -3 6 -1 10 4
10 6 0 11 -4 11 -10z m458 -4 c-7 -8 -15 -12 -17 -11 -5 6 10 25 20 25 5 0 4
-6 -3 -14z m-118 -6 c0 -5 -10 -10 -22 -9 -22 0 -22 1 -3 9 11 5 21 9 23 9 1
1 2 -3 2 -9z m7297 -6 c-3 -3 -12 -4 -19 -1 -8 3 -5 6 6 6 11 1 17 -2 13 -5z
m-644 -11 c-7 -2 -19 -2 -25 0 -7 3 -2 5 12 5 14 0 19 -2 13 -5z m-6716 -9
c-3 -3 -12 -4 -19 -1 -8 3 -5 6 6 6 11 1 17 -2 13 -5z m-510 -20 c-3 -3 -12
-4 -19 -1 -8 3 -5 6 6 6 11 1 17 -2 13 -5z m7293 -4 c8 -5 11 -10 5 -10 -5 0
-17 5 -25 10 -8 5 -10 10 -5 10 6 0 17 -5 25 -10z m-6890 -10 c-8 -5 -22 -10
-30 -10 -13 0 -13 1 0 10 8 5 22 10 30 10 13 0 13 -1 0 -10z m57 4 c-3 -3 -12
-4 -19 -1 -8 3 -5 6 6 6 11 1 17 -2 13 -5z m2393 -4 c-8 -5 -22 -9 -30 -9 -10
0 -8 3 5 9 27 12 43 12 25 0z m5067 4 c-3 -3 -12 -4 -19 -1 -8 3 -5 6 6 6 11
1 17 -2 13 -5z m-4920 -10 c-3 -3 -12 -4 -19 -1 -8 3 -5 6 6 6 11 1 17 -2 13
-5z m4888 -4 c3 -5 1 -10 -4 -10 -6 0 -11 5 -11 10 0 6 2 10 4 10 3 0 8 -4 11
-10z m-902 -17 c-7 -2 -21 -2 -30 0 -10 3 -4 5 12 5 17 0 24 -2 18 -5z m-6853
-13 c-8 -5 -26 -9 -40 -9 -23 1 -23 2 5 9 43 11 52 11 35 0z m-95 -20 c-3 -5
-11 -10 -16 -10 -6 0 -7 5 -4 10 3 6 11 10 16 10 6 0 7 -4 4 -10z m7355 0 c13
-8 13 -10 -2 -10 -9 0 -20 5 -23 10 -8 13 5 13 25 0z m-4990 -10 c-8 -5 -24
-9 -35 -9 -16 1 -16 2 5 9 35 11 48 11 30 0z m-2383 -26 c-3 -3 -12 -4 -19 -1
-8 3 -5 6 6 6 11 1 17 -2 13 -5z m2268 -3 c-6 -5 -26 -12 -45 -15 l-35 -6 35
14 c42 17 58 20 45 7z m112 -27 c-3 -3 -12 -4 -19 -1 -8 3 -5 6 6 6 11 1 17
-2 13 -5z m-462 -134 c-3 -5 -13 -10 -21 -10 -8 0 -12 5 -9 10 3 6 13 10 21
10 8 0 12 -4 9 -10z m-367 -14 c-20 -19 -97 -26 -90 -8 3 9 14 12 33 8 16 -3
31 -1 34 4 3 6 13 10 21 10 13 0 13 -2 2 -14z m1379 -2 c-3 -3 -12 -4 -19 -1
-8 3 -5 6 6 6 11 1 17 -2 13 -5z m-1042 -14 c-28 -12 -45 -12 -45 0 0 6 15 10
33 9 27 0 29 -2 12 -9z m-445 -4 c0 -2 -9 -6 -20 -9 -11 -3 -18 -1 -14 4 5 9
34 13 34 5z m197 -12 c-3 -3 -12 -4 -19 -1 -8 3 -5 6 6 6 11 1 17 -2 13 -5z
m-1174 -21 c-13 -2 -35 -2 -50 0 -16 2 -5 4 22 4 28 0 40 -2 28 -4z m47 -3 c0
-5 -5 -10 -11 -10 -5 0 -7 5 -4 10 3 6 8 10 11 10 2 0 4 -4 4 -10z m54 -5 c-4
-8 -13 -15 -21 -15 -13 0 -13 3 -3 15 7 8 16 15 21 15 5 0 6 -7 3 -15z m913
-2 c3 -7 -4 -11 -16 -10 -12 1 -21 7 -21 15 0 16 32 12 37 -5z m393 -3 c22 -7
21 -8 -12 -9 -21 -1 -38 4 -38 9 0 11 14 11 50 0z m110 0 c-8 -5 -26 -9 -40
-9 -23 1 -23 2 5 9 43 11 52 11 35 0z m-235 -10 c-16 -4 -48 -8 -70 -8 -38 0
-38 1 -10 8 17 4 48 8 70 8 38 0 38 -1 10 -8z m495 0 c12 -8 11 -10 -7 -10
-12 0 -30 -3 -40 -6 -16 -5 -16 -4 1 10 23 19 26 19 46 6z m423 0 c-74 -8 -93
-14 -93 -31 0 -6 5 -7 12 -3 7 4 8 3 4 -4 -5 -9 -13 -9 -26 -2 -25 13 -80 1
-80 -17 0 -10 -6 -13 -16 -9 -9 3 -25 6 -37 7 -21 0 -21 1 -2 9 11 5 16 9 10
10 -5 1 26 12 70 25 54 16 104 23 155 23 l75 -1 -72 -7z m-1072 -13 c-4 -4
-23 -4 -42 1 l-34 10 42 -1 c24 -1 39 -5 34 -10z m499 -7 c-19 -12 -30 -12
-30 -1 0 10 31 20 40 14 2 -2 -2 -8 -10 -13z m-1560 -11 c-42 -12 -56 -9 -30
4 14 8 32 11 40 8 11 -4 8 -7 -10 -12z m893 14 c-7 -2 -21 -2 -30 0 -10 3 -4
5 12 5 17 0 24 -2 18 -5z m1289 -5 c-9 -9 -15 -9 -24 0 -9 9 -7 12 12 12 19 0
21 -3 12 -12z m-2515 -4 c-3 -3 -12 -4 -19 -1 -8 3 -5 6 6 6 11 1 17 -2 13 -5z
m270 0 c-3 -3 -12 -4 -19 -1 -8 3 -5 6 6 6 11 1 17 -2 13 -5z m886 -1 c-7 -2
-19 -2 -25 0 -7 3 -2 5 12 5 14 0 19 -2 13 -5z m150 0 c-7 -2 -21 -2 -30 0
-10 3 -4 5 12 5 17 0 24 -2 18 -5z m244 1 c-3 -3 -12 -4 -19 -1 -8 3 -5 6 6 6
11 1 17 -2 13 -5z m-1458 -27 c-63 -43 -102 -58 -134 -52 -21 4 -26 3 -16 -4
10 -6 0 -9 -34 -9 -30 1 -50 -3 -53 -11 -3 -8 -8 -6 -18 6 -9 12 -16 14 -21 7
-5 -6 -21 -14 -38 -18 -27 -7 -29 -6 -14 9 9 9 46 20 85 26 102 14 207 41 222
56 7 7 23 13 34 13 17 0 15 -4 -13 -23z m-276 6 c-7 -2 -21 -2 -30 0 -10 3 -4
5 12 5 17 0 24 -2 18 -5z m1993 -4 c18 -14 0 -31 -23 -22 -12 5 -12 7 -1 14
10 7 9 9 -4 9 -9 0 -18 -4 -20 -10 -3 -10 -78 -2 -78 9 0 12 111 12 126 0z
m179 1 c-3 -5 -16 -10 -28 -9 -20 1 -20 2 3 9 14 4 26 8 28 9 2 1 0 -3 -3 -9z
m195 0 c9 -1 7 -5 -7 -10 -25 -10 -65 -2 -57 12 4 5 16 7 28 4 11 -3 28 -6 36
-6z m-1810 -10 c-8 -5 -33 -9 -55 -8 l-40 1 40 7 c65 12 73 12 55 0z m3547 4
c-3 -3 -12 -4 -19 -1 -8 3 -5 6 6 6 11 1 17 -2 13 -5z m-3491 -19 c-23 -17
-60 -20 -51 -4 4 6 13 8 21 5 7 -3 16 -1 19 4 4 6 12 10 18 10 7 0 3 -7 -7
-15z m1579 5 c3 -5 -1 -10 -10 -10 -9 0 -13 5 -10 10 3 6 8 10 10 10 2 0 7 -4
10 -10z m435 0 c0 -5 -8 -10 -17 -10 -15 0 -16 2 -3 10 19 12 20 12 20 0z
m500 6 c0 -2 -7 -6 -15 -10 -8 -3 -15 -1 -15 4 0 6 7 10 15 10 8 0 15 -2 15
-4z m-1420 -25 c0 -6 -5 -13 -10 -16 -15 -9 -43 3 -35 15 8 13 45 13 45 1z
m120 -1 c-20 -13 -60 -13 -60 0 0 6 17 10 38 10 27 0 33 -3 22 -10z m320 0
c-8 -5 -22 -9 -30 -9 -10 0 -8 3 5 9 27 12 43 12 25 0z m867 4 c-3 -3 -12 -4
-19 -1 -8 3 -5 6 6 6 11 1 17 -2 13 -5z m133 2 c0 -2 -7 -7 -16 -10 -8 -3 -12
-2 -9 4 6 10 25 14 25 6z m-2751 -16 c12 6 34 10 49 8 22 -3 17 -6 -28 -20
-76 -22 -143 -31 -135 -18 3 5 -2 10 -12 11 -10 0 7 6 37 13 30 6 58 7 61 3 4
-5 16 -4 28 3z m1244 3 c-7 -2 -19 -2 -25 0 -7 3 -2 5 12 5 14 0 19 -2 13 -5z
m-163 -7 c0 -9 -30 -14 -35 -6 -4 6 3 10 14 10 12 0 21 -2 21 -4z m113 -3 c-7
-2 -19 -2 -25 0 -7 3 -2 5 12 5 14 0 19 -2 13 -5z m598 -6 c-5 -5 -36 -11 -68
-13 l-58 -3 45 13 c56 16 96 18 81 3z m869 3 c-8 -5 -22 -9 -30 -9 -10 0 -8 3
5 9 27 12 43 12 25 0z m-1856 -10 c-12 -5 -25 -13 -29 -19 -3 -6 -16 -11 -28
-11 -18 0 -16 3 13 19 19 10 42 19 50 19 8 0 5 -3 -6 -8z m-421 -7 c-7 -2 -19
-2 -25 0 -7 3 -2 5 12 5 14 0 19 -2 13 -5z m617 -7 c-8 -8 -26 -17 -40 -21
-23 -6 -23 -5 5 14 34 24 57 28 35 7z m185 -1 c40 -18 16 -19 -26 0 -19 8 -27
14 -19 14 8 0 29 -6 45 -14z m2772 9 c-3 -3 -12 -4 -19 -1 -8 3 -5 6 6 6 11 1
17 -2 13 -5z m-3624 -15 c-6 -6 -38 -12 -72 -12 -34 -1 -61 -5 -61 -8 0 -6
-54 -29 -66 -29 -10 0 -3 30 8 36 6 4 53 11 102 14 50 4 93 8 96 8 2 1 -1 -3
-7 -9z m594 5 c-3 -3 -12 -4 -19 -1 -8 3 -5 6 6 6 11 1 17 -2 13 -5z m381 -8
c9 -10 -52 -6 -67 3 -10 6 -2 8 23 6 21 -2 41 -6 44 -9z m295 7 c-7 -2 -21 -2
-30 0 -10 3 -4 5 12 5 17 0 24 -2 18 -5z m-1787 -18 c-22 -16 -57 -21 -40 -6
7 8 29 15 54 20 3 0 -4 -6 -14 -14z m1279 5 c-3 -5 -16 -10 -28 -9 -21 0 -21
1 -2 9 28 12 37 12 30 0z m442 4 c-3 -3 -12 -4 -19 -1 -8 3 -5 6 6 6 11 1 17
-2 13 -5z m-1812 -13 c-6 -5 -32 -11 -60 -15 -49 -5 -49 -5 -16 7 40 16 89 21
76 8z m889 -6 c-25 -19 -9 -19 52 0 58 18 61 18 49 6 -13 -13 -90 -32 -145
-37 -83 -6 -122 -16 -116 -29 6 -17 -25 -25 -89 -24 -50 1 -50 1 -16 11 19 5
43 7 53 4 13 -3 18 0 15 8 -3 8 24 20 82 35 47 12 93 26 101 31 25 15 35 11
14 -5z m-531 -22 c-8 -23 -33 -42 -53 -42 -12 0 -11 2 3 13 16 13 16 14 -5 19
-13 4 -27 2 -32 -3 -6 -6 -26 -10 -45 -9 -35 0 -34 1 14 14 48 13 86 21 112
24 8 0 10 -6 6 -16z m777 -3 c12 -8 11 -10 -7 -10 -12 0 -25 5 -28 10 -8 13
15 13 35 0z m-983 -6 c-3 -3 -12 -4 -19 -1 -8 3 -5 6 6 6 11 1 17 -2 13 -5z
m930 0 c-3 -3 -12 -4 -19 -1 -8 3 -5 6 6 6 11 1 17 -2 13 -5z m-190 -20 c-3
-3 -12 -4 -19 -1 -8 3 -5 6 6 6 11 1 17 -2 13 -5z m358 -15 c-22 -10 -47 -18
-55 -18 -8 0 5 8 30 19 59 24 76 24 25 -1z m-1308 5 c-3 -3 -12 -4 -19 -1 -8
3 -5 6 6 6 11 1 17 -2 13 -5z m903 -4 c0 -10 -68 -26 -77 -17 -3 3 10 10 28
16 45 12 49 13 49 1z m-570 -10 c-8 -5 -22 -10 -30 -10 -13 0 -13 1 0 10 8 5
22 10 30 10 13 0 13 -1 0 -10z m-110 -19 c-25 -14 -99 -22 -128 -14 -21 6 -10
9 48 14 41 3 80 6 85 7 6 1 3 -2 -5 -7z m359 5 c-2 -2 -17 -6 -34 -10 -22 -5
-26 -4 -15 4 14 9 59 15 49 6z m-317 -22 c-12 -8 -32 -14 -45 -12 -19 4 -17 6
13 15 50 16 58 15 32 -3z m505 -10 c0 -8 -10 -14 -22 -14 -11 0 -47 -7 -79
-15 -33 -9 -61 -13 -64 -11 -2 3 16 10 42 17 25 6 46 15 46 20 0 5 -12 4 -26
-1 -36 -14 -54 -11 -21 4 40 18 124 17 124 0z m-587 -14 c0 -11 -68 -25 -77
-16 -7 7 34 24 60 25 9 1 17 -3 17 -9z m265 1 c-3 -5 5 -12 17 -14 17 -3 15
-5 -9 -6 -18 0 -54 -6 -80 -11 -30 -7 -64 -7 -88 -2 l-40 9 55 7 c30 5 62 12
70 17 20 11 83 11 75 0z m135 -16 c-23 -13 -23 -14 -5 -16 23 -2 -26 -16 -60
-18 l-20 0 20 11 c11 6 22 15 25 18 5 7 34 17 55 18 6 1 -1 -5 -15 -13z m-495
-5 c-3 -5 -13 -10 -21 -10 -8 0 -14 5 -14 10 0 6 9 10 21 10 11 0 17 -4 14
-10z m435 -44 c0 -2 -7 -7 -16 -10 -8 -3 -12 -2 -9 4 6 10 25 14 25 6z m-300
-360 c0 -2 -9 -6 -20 -9 -11 -3 -18 -1 -14 4 5 9 34 13 34 5z m-140 -71 c0 -8
-62 -37 -67 -31 -3 3 10 12 28 20 42 18 39 17 39 11z"/>
<path d="M520 530 c0 -5 5 -10 10 -10 6 0 10 5 10 10 0 6 -4 10 -10 10 -5 0
-10 -4 -10 -10z"/>
<path d="M5378 2733 c7 -3 16 -2 19 1 4 3 -2 6 -13 5 -11 0 -14 -3 -6 -6z"/>
<path d="M4840 2721 c0 -5 -16 -12 -35 -15 -55 -11 -52 -26 5 -26 32 0 49 4
45 10 -3 6 0 10 9 10 8 0 16 -5 18 -11 2 -6 17 -9 33 -7 l30 3 -36 23 c-37 23
-69 29 -69 13z"/>
<path d="M5007 2704 c-35 -19 -34 -24 4 -24 16 0 28 4 24 9 -3 5 3 11 12 13
15 3 16 5 3 10 -9 3 -28 -1 -43 -8z"/>
<path d="M5938 2703 c7 -3 16 -2 19 1 4 3 -2 6 -13 5 -11 0 -14 -3 -6 -6z"/>
<path d="M6025 2701 l40 -5 -45 -6 c-36 -6 -30 -7 35 -7 44 0 68 2 53 4 -16 2
-28 9 -28 14 0 5 -21 8 -47 7 l-48 -1 40 -6z"/>
<path d="M5358 2683 c12 -2 30 -2 40 0 9 3 -1 5 -23 4 -22 0 -30 -2 -17 -4z"/>
<path d="M0 2430 c0 -5 7 -10 15 -10 8 0 15 5 15 10 0 6 -7 10 -15 10 -8 0
-15 -4 -15 -10z"/>
<path d="M128 2423 c7 -3 16 -2 19 1 4 3 -2 6 -13 5 -11 0 -14 -3 -6 -6z"/>
</g>
</svg>
